<svg xmlns="http://www.w3.org/2000/svg" width="980" height="360" viewBox="0 0 980 360">
<rect width="100%" height="100%" fill="#111820"/>
<polyline fill="none" stroke="#ff8c1a" stroke-width="3" points="427.2,221.5 423.4,215.8 419.7,210.2 415.9,204.7 412.2,199.3 408.4,194.1 404.7,188.9 400.9,183.9 397.2,179.0 393.4,174.2 389.6,169.6 385.9,165.0 382.1,160.6 378.4,156.3 374.6,152.1 370.9,148.1 367.1,144.1 363.4,140.3 359.6,136.6 355.8,133.0 352.1,129.5 348.3,126.2 344.6,123.0 340.8,119.8 337.1,116.9 333.3,114.0 329.6,111.2 325.8,108.6 322.0,106.1 318.3,103.7 314.5,101.4 310.8,99.3 307.0,97.2 303.3,95.3 299.5,93.5 295.8,91.8 292.0,90.2 288.2,88.8 284.5,87.5 280.7,86.3 277.0,85.2 273.2,84.2 269.5,83.4 265.7,82.6 262.0,82.0 258.2,81.5 254.4,81.2 250.7,80.9 246.9,80.8 243.2,80.8 239.4,80.9 235.7,81.1 231.9,81.5 228.2,81.9 224.4,82.5 220.6,83.2 216.9,84.0 213.1,85.0 209.4,86.0 205.6,87.2 201.9,88.5 198.1,89.9 194.4,91.4 190.6,93.1 186.8,94.9 183.1,96.8 179.3,98.8 175.6,100.9 171.8,103.2 168.1,105.5 164.3,108.0 160.6,110.6 156.8,113.3 153.0,116.2 149.3,119.2 145.5,122.2 141.8,125.4 138.0,128.8 134.3,132.2 130.5,135.8 126.8,139.4 123.0,143.2 119.2,147.2 115.5,151.2 111.7,155.4 108.0,159.6 104.2,164.0 100.5,168.5 96.7,173.2 92.9,177.9 89.2,182.8 85.4,187.8 81.7,192.9 77.9,198.1 74.2,203.5 70.4,208.9 66.7,214.5 62.9,220.2 59.1,226.0 55.4,232.0 51.6,238.1 47.9,244.2 44.1,250.5 40.4,257.0 36.6,263.5 32.9,270.1"/>
<polyline fill="none" stroke="#3ad0ff" stroke-width="2.5" points="947.1,274.0 947.1,275.0 947.1,276.7 947.1,279.1 947.1,282.3 947.1,286.2 947.1,290.8 947.1,296.0 947.1,302.0 947.0,306.8 946.6,307.9 946.0,308.2 945.1,308.3 944.0,308.3 942.7,308.3 941.2,308.3 939.4,308.3 937.5,308.3 935.3,308.3 932.9,308.3 930.3,308.3 927.5,308.4 924.5,308.4 921.2,308.4 917.8,308.4 914.2,308.4 910.4,308.4 906.4,308.4 902.2,308.4 897.8,308.4 893.3,308.5 888.6,308.5 883.6,308.5 878.5,308.5 873.3,308.5 867.8,308.5 862.2,308.5 856.5,308.6 850.6,308.6 844.5,308.6 838.2,308.6 831.8,308.6 825.3,308.6 818.6,308.7 811.7,308.7 804.7,308.7 797.6,308.7 790.3,308.7 782.9,308.8 775.3,308.8 767.7,308.8 759.8,308.8 751.9,308.8 743.6,308.8 735.0,308.9 726.0,308.9 716.6,309.0 706.8,309.0 696.7,309.1 686.2,309.2 675.3,309.2 664.2,309.3 652.7,309.3 640.8,309.4 628.8,309.5 616.8,309.5 604.7,309.5 592.6,309.6 580.5,309.6 568.3,309.6 556.0,309.6 543.7,309.6 531.4,309.6 519.1,309.0 508.3,303.2 499.8,296.8 489.7,290.0 479.5,284.5 469.4,277.5 459.3,268.0 449.5,255.5 439.8,241.4 430.3,226.4 420.9,212.2 411.6,199.0 402.4,186.6 393.3,175.1 384.3,164.5 375.4,154.7 366.5,145.7 357.8,137.6 349.1,130.3 340.6,123.8 332.1,118.1 323.7,113.2 315.4,109.1 307.2,105.8 299.0,103.2 290.9,101.5 283.0,100.4 275.1,100.2 267.2,100.6 259.5,101.8 251.8,103.8 244.3,106.4 236.7,109.8 229.3,113.9 221.9,118.7 214.7,124.1 207.4,130.3 200.3,137.1 193.2,144.6 186.2,152.8 179.3,161.6 172.4,171.1 165.6,181.3 158.9,192.0 152.2,203.5 145.7,215.5 139.1,228.1 132.7,241.4 126.3,255.3 120.5,267.1 115.3,274.9 110.2,281.2 105.3,281.1 100.5,280.4 95.7,279.9 91.0,279.6 86.4,279.6 81.7,279.6 77.2,279.6 72.6,279.6 68.2,279.6"/>
</svg>